<svg id="visual" viewBox="0 0 2100 900" width="2100" height="900" xmlns="http://www.w3.org/2000/svg" xmlns:xlink="http://www.w3.org/1999/xlink" version="1.1"><path d="M0 127L31.8 148C63.7 169 127.3 211 191 229C254.7 247 318.3 241 382 257.5C445.7 274 509.3 313 573 334C636.7 355 700.3 358 764 343C827.7 328 891.3 295 954.8 278.5C1018.3 262 1081.7 262 1145.2 244C1208.7 226 1272.3 190 1336 172C1399.7 154 1463.3 154 1527 172C1590.7 190 1654.3 226 1718 235C1781.7 244 1845.3 226 1909 215.5C1972.7 205 2036.3 202 2068.2 200.5L2100 199L2100 0L2068.2 0C2036.3 0 1972.7 0 1909 0C1845.3 0 1781.7 0 1718 0C1654.3 0 1590.7 0 1527 0C1463.3 0 1399.7 0 1336 0C1272.3 0 1208.7 0 1145.2 0C1081.7 0 1018.3 0 954.8 0C891.3 0 827.7 0 764 0C700.3 0 636.7 0 573 0C509.3 0 445.7 0 382 0C318.3 0 254.7 0 191 0C127.3 0 63.7 0 31.8 0L0 0Z" fill="#b07a71"></path><path d="M0 334L31.8 338.5C63.7 343 127.3 352 191 352C254.7 352 318.3 343 382 364C445.7 385 509.3 436 573 476.5C636.7 517 700.3 547 764 544C827.7 541 891.3 505 954.8 484C1018.3 463 1081.7 457 1145.2 425.5C1208.7 394 1272.3 337 1336 310C1399.7 283 1463.3 286 1527 320.5C1590.7 355 1654.3 421 1718 449.5C1781.7 478 1845.3 469 1909 458.5C1972.7 448 2036.3 436 2068.2 430L2100 424L2100 197L2068.2 198.5C2036.3 200 1972.7 203 1909 213.5C1845.3 224 1781.7 242 1718 233C1654.3 224 1590.7 188 1527 170C1463.3 152 1399.7 152 1336 170C1272.3 188 1208.7 224 1145.2 242C1081.7 260 1018.3 260 954.8 276.5C891.3 293 827.7 326 764 341C700.3 356 636.7 353 573 332C509.3 311 445.7 272 382 255.5C318.3 239 254.7 245 191 227C127.3 209 63.7 167 31.8 146L0 125Z" fill="#a1645b"></path><path d="M0 469L31.8 470.5C63.7 472 127.3 475 191 478C254.7 481 318.3 484 382 497.5C445.7 511 509.3 535 573 562C636.7 589 700.3 619 764 619C827.7 619 891.3 589 954.8 568C1018.3 547 1081.7 535 1145.2 499C1208.7 463 1272.3 403 1336 379C1399.7 355 1463.3 367 1527 401.5C1590.7 436 1654.3 493 1718 517C1781.7 541 1845.3 532 1909 520C1972.7 508 2036.3 493 2068.2 485.5L2100 478L2100 422L2068.2 428C2036.3 434 1972.7 446 1909 456.5C1845.3 467 1781.7 476 1718 447.5C1654.3 419 1590.7 353 1527 318.5C1463.3 284 1399.7 281 1336 308C1272.3 335 1208.7 392 1145.2 423.5C1081.7 455 1018.3 461 954.8 482C891.3 503 827.7 539 764 542C700.3 545 636.7 515 573 474.5C509.3 434 445.7 383 382 362C318.3 341 254.7 350 191 350C127.3 350 63.7 341 31.8 336.5L0 332Z" fill="#914f45"></path><path d="M0 766L31.8 776.5C63.7 787 127.3 808 191 802C254.7 796 318.3 763 382 746.5C445.7 730 509.3 730 573 743.5C636.7 757 700.3 784 764 784C827.7 784 891.3 757 954.8 755.5C1018.3 754 1081.7 778 1145.2 773.5C1208.7 769 1272.3 736 1336 734.5C1399.7 733 1463.3 763 1527 776.5C1590.7 790 1654.3 787 1718 794.5C1781.7 802 1845.3 820 1909 808C1972.7 796 2036.3 754 2068.2 733L2100 712L2100 476L2068.2 483.5C2036.3 491 1972.7 506 1909 518C1845.3 530 1781.7 539 1718 515C1654.3 491 1590.7 434 1527 399.5C1463.3 365 1399.7 353 1336 377C1272.3 401 1208.7 461 1145.2 497C1081.7 533 1018.3 545 954.8 566C891.3 587 827.7 617 764 617C700.3 617 636.7 587 573 560C509.3 533 445.7 509 382 495.5C318.3 482 254.7 479 191 476C127.3 473 63.7 470 31.8 468.5L0 467Z" fill="#7d443c"></path><path d="M0 901L31.8 901C63.7 901 127.3 901 191 901C254.7 901 318.3 901 382 901C445.7 901 509.3 901 573 901C636.7 901 700.3 901 764 901C827.7 901 891.3 901 954.8 901C1018.3 901 1081.7 901 1145.2 901C1208.7 901 1272.3 901 1336 901C1399.7 901 1463.3 901 1527 901C1590.7 901 1654.3 901 1718 901C1781.7 901 1845.3 901 1909 901C1972.7 901 2036.3 901 2068.2 901L2100 901L2100 710L2068.2 731C2036.3 752 1972.7 794 1909 806C1845.3 818 1781.7 800 1718 792.5C1654.3 785 1590.7 788 1527 774.5C1463.3 761 1399.7 731 1336 732.5C1272.3 734 1208.7 767 1145.2 771.5C1081.7 776 1018.3 752 954.8 753.5C891.3 755 827.7 782 764 782C700.3 782 636.7 755 573 741.5C509.3 728 445.7 728 382 744.5C318.3 761 254.7 794 191 800C127.3 806 63.7 785 31.8 774.5L0 764Z" fill="#6a3a33"></path></svg>